#!OML:ASF F:\VICON\USERDATA\INSTALL\rory3\rory3.ASF
:FULLY-SPECIFIED
:DEGREES
3010
root 0.252005 16.8858 0.444767 -11.9366 3.47762 -1.39866
lowerback -6.73198 -0.250069 -2.12067
upperback 1.11607 -0.145896 -0.154622
thorax 4.94266 -0.130113 1.01515
lowerneck 9.98408 -9.27894 -19.6158
upperneck 30.613 -17.389 13.3645
head 11.358 -9.48092 6.90647
rclavicle 2.68359e-015 5.56597e-015
rhumerus 73.7019 -25.9841 -73.5776
rradius 115.595
rwrist -48.3978
rhand 43.1413 16.9562
rfingers 7.12502
rthumb 64.9424 9.68371
lclavicle 2.68359e-015 5.56597e-015
lhumerus 71.1643 8.00786 67.5831
lradius 109.865
lwrist 68.4319
lhand 42.4642 32.2915
lfingers 7.12502
lthumb 64.4037 40.4308
rfemur 13.9899 7.5494 22.4707
rtibia 19.5438
rfoot -19.9722 -14.0316
rtoes -24.5822
lfemur 9.19592 -13.5762 -21.0561
ltibia 26.5766
lfoot -21.9963 4.90088
ltoes -17.328
3011
root 0.251448 16.8873 0.435599 -11.9291 3.43705 -1.26822
lowerback -6.73123 -0.305637 -2.29628
upperback 1.11845 -0.205541 -0.144867
thorax 4.94773 -0.164818 1.11741
lowerneck 9.71883 -9.31095 -19.7983
upperneck 30.7855 -17.4017 13.286
head 11.4941 -9.50174 6.88962
rclavicle -1.08338e-014 -9.54166e-015
rhumerus 73.8298 -24.8545 -74.8602
rradius 115.292
rwrist -48.6622
rhand 43.2951 16.984
rfingers 7.12502
rthumb 65.0639 9.91386
lclavicle -1.08338e-014 -9.54166e-015
lhumerus 71.0289 7.28751 68.9052
lradius 109.953
lwrist 68.6158
lhand 42.5349 32.3938
lfingers 7.12502
lthumb 64.4602 40.4445
rfemur 13.9213 7.57525 22.309
rtibia 19.5861
rfoot -20.0129 -13.9224
rtoes -24.5587
lfemur 9.18931 -13.5771 -21.2092
ltibia 26.5359
lfoot -21.9668 4.84527
ltoes -16.6763
3012
root 0.251714 16.8876 0.426357 -11.9595 3.3717 -1.24662
lowerback -6.74292 -0.321938 -2.33187
upperback 1.1668 -0.224362 -0.122073
thorax 5.0059 -0.176517 1.15887
lowerneck 9.4233 -9.35737 -19.826
upperneck 30.9197 -17.3956 13.1405
head 11.5916 -9.4982 6.82083
rclavicle 7.95139e-015 1.35174e-014
rhumerus 73.9985 -23.9438 -76.0879
rradius 114.92
rwrist -48.9421
rhand 43.2358 16.9927
rfingers 7.12502
rthumb 65.0171 9.84433
lclavicle 7.95139e-015 1.35174e-014
lhumerus 70.9356 6.60992 70.1427
lradius 110.084
lwrist 68.8918
lhand 42.481 32.5485
lfingers 7.12502
lthumb 64.4172 40.6668
rfemur 13.8858 7.56667 22.2643
rtibia 19.6321
rfoot -20.0145 -13.8638
rtoes -24.8114
lfemur 9.22109 -13.5766 -21.2549
ltibia 26.5015
lfoot -21.9025 5.03623
ltoes -17.3007
3013
root 0.25195 16.8888 0.419415 -11.9856 3.27628 -1.23053
lowerback -6.81488 -0.356697 -2.35607
upperback 1.26963 -0.266409 -0.0975644
thorax 5.15615 -0.200903 1.19277
lowerneck 9.14072 -9.44097 -19.8349
upperneck 30.9418 -17.413 12.9336
head 11.6374 -9.50669 6.71746
rclavicle 0 6.36111e-015
rhumerus 74.2178 -23.0001 -77.3446
rradius 114.634
rwrist -49.1401
rhand 42.947 17.1891
rfingers 7.12502
rthumb 64.7884 9.66388
lclavicle 0 6.36111e-015
lhumerus 70.8439 6.05198 71.2982
lradius 110.266
lwrist 69.1635
lhand 42.385 32.7465
lfingers 7.12502
lthumb 64.3403 40.9847
rfemur 13.8561 7.59033 22.2409
rtibia 19.6653
rfoot -19.9936 -13.8771
rtoes -25.3664
lfemur 9.25021 -13.5577 -21.2823
ltibia 26.4929
lfoot -21.8299 5.00854
ltoes -16.721
3014
root 0.251706 16.8902 0.40887 -11.9547 3.22506 -1.24484
lowerback -6.86948 -0.395317 -2.34279
upperback 1.35168 -0.316671 -0.0928068
thorax 5.27494 -0.227401 1.18414
lowerneck 9.01309 -9.57429 -19.8077
upperneck 30.8069 -17.5139 12.7391
head 11.6047 -9.5546 6.60646
rclavicle -2.38542e-015 1.59028e-015
rhumerus 74.3545 -22.0728 -78.6105
rradius 114.358
rwrist -49.3173
rhand 42.5053 17.2807
rfingers 7.12502
rthumb 64.4366 9.1929
lclavicle -2.38542e-015 1.59028e-015
lhumerus 70.8156 5.47437 72.4754
lradius 110.414
lwrist 69.5648
lhand 42.229 32.9476
lfingers 7.12502
lthumb 64.2152 41.3791
rfemur 13.7613 7.56802 22.2296
rtibia 19.6841
rfoot -19.9621 -13.8423
rtoes -25.1831
lfemur 9.18434 -13.5531 -21.2526
ltibia 26.4978
lfoot -21.8168 5.08903
ltoes -17.3517
3015
root 0.252048 16.8913 0.397008 -11.9389 3.11742 -1.31136
lowerback -6.83157 -0.384312 -2.21227
upperback 1.36725 -0.313577 -0.106341
thorax 5.2685 -0.221681 1.09718
lowerneck 9.10899 -9.70685 -19.7933
upperneck 30.5617 -17.6424 12.5532
head 11.4939 -9.62625 6.50859
rclavicle 1.55052e-014 4.37326e-015
rhumerus 74.3239 -21.2036 -79.8061
rradius 114.082
rwrist -49.4358
rhand 42.0047 17.2388
rfingers 7.12502
rthumb 64.0347 8.53257
lclavicle 1.55052e-014 4.37326e-015
lhumerus 70.6612 4.84693 73.5531
lradius 110.522
lwrist 70.0388
lhand 41.9186 32.9993
lfingers 7.12502
lthumb 63.9652 41.81
rfemur 13.6841 7.57304 22.2832
rtibia 19.6824
rfoot -19.8968 -13.755
rtoes -24.9168
lfemur 9.12178 -13.4881 -21.1475
ltibia 26.5124
lfoot -21.8486 5.13124
ltoes -17.534
3016
root 0.251029 16.8929 0.386949 -11.9322 2.98364 -1.2827
lowerback -6.77433 -0.446515 -2.27827
upperback 1.29252 -0.395907 -0.0556743
thorax 5.16172 -0.263497 1.17818
lowerneck 9.28812 -9.69493 -19.8966
upperneck 30.3864 -17.5631 12.28
head 11.3588 -9.62688 6.43197
rclavicle -2.18663e-015 -5.1684e-015
rhumerus 74.0959 -20.0654 -80.9083
rradius 113.864
rwrist -49.5645
rhand 41.923 17.199
rfingers 7.12502
rthumb 63.9688 8.39371
lclavicle -2.18663e-015 -5.1684e-015
lhumerus 70.2022 4.44557 74.3644
lradius 110.637
lwrist 70.2563
lhand 41.686 32.6868
lfingers 7.12502
lthumb 63.7772 41.7765
rfemur 13.6043 7.65932 22.2547
rtibia 19.7098
rfoot -19.8757 -13.6793
rtoes -24.7295
lfemur 9.09871 -13.4264 -21.1636
ltibia 26.5082
lfoot -21.8094 5.23044
ltoes -17.4887
3017
root 0.249721 16.8955 0.377264 -11.878 2.84816 -1.34092
lowerback -6.7978 -0.513002 -2.30357
upperback 1.11017 -0.489537 0.0549433
thorax 4.98922 -0.30884 1.29749
lowerneck 9.6759 -9.59916 -20.0778
upperneck 30.3454 -17.4174 11.993
head 11.2369 -9.61869 6.38855
rclavicle -1.21756e-014 -9.93923e-015
rhumerus 73.5854 -18.9082 -81.7983
rradius 113.662
rwrist -49.6523
rhand 41.8509 17.2167
rfingers 7.12502
rthumb 63.9106 8.32445
lclavicle -1.21756e-014 -9.93923e-015
lhumerus 69.568 4.05275 75.1863
lradius 110.842
lwrist 70.2944
lhand 41.4795 32.9684
lfingers 7.12502
lthumb 63.6097 42.3024
rfemur 13.4647 7.72538 22.3133
rtibia 19.7333
rfoot -19.7955 -13.6289
rtoes -24.8604
lfemur 9.02214 -13.3698 -21.0629
ltibia 26.4945
lfoot -21.7714 5.31054
ltoes -17.6041
3018
root 0.25104 16.8962 0.368218 -11.8587 2.75613 -1.25662
lowerback -6.86938 -0.50896 -2.30594
upperback 1.03962 -0.480066 -0.0022267
thorax 4.95517 -0.302369 1.24036
lowerneck 10.0491 -9.57709 -20.118
upperneck 30.2267 -17.4139 11.8855
head 11.1167 -9.64624 6.37314
rclavicle 3.52843e-015 3.57812e-015
rhumerus 73.1788 -18.0479 -82.7536
rradius 113.378
rwrist -49.6355
rhand 41.952 17.4001
rfingers 7.12502
rthumb 63.9922 8.62993
lclavicle 3.52843e-015 3.57812e-015
lhumerus 69.1576 3.52759 75.8951
lradius 110.964
lwrist 70.381
lhand 41.5428 33.1632
lfingers 7.12502
lthumb 63.6611 42.4226
rfemur 13.3773 7.69522 22.1726
rtibia 19.7697
rfoot -19.8225 -13.5198
rtoes -25.3118
lfemur 9.02314 -13.3659 -21.175
ltibia 26.4395
lfoot -21.7517 5.37626
ltoes -17.3261
3019
root 0.251639 16.8962 0.358574 -11.8889 2.6385 -1.23464
lowerback -6.92422 -0.494702 -2.21455
upperback 1.11574 -0.463315 -0.0681006
thorax 5.06365 -0.292235 1.12179
lowerneck 9.87655 -9.65198 -19.76
upperneck 30.2434 -17.3815 11.5332
head 11.0733 -9.60775 6.17381
rclavicle 1.0635e-014 -2.78299e-015
rhumerus 73.0387 -17.2628 -83.7957
rradius 113.116
rwrist -49.6491
rhand 41.9793 17.3634
rfingers 7.12502
rthumb 64.0142 8.62625
lclavicle 1.0635e-014 -2.78299e-015
lhumerus 68.9858 3.0665 76.5185
lradius 111.015
lwrist 70.4806
lhand 41.6754 33.0481
lfingers 7.12502
lthumb 63.7686 42.1504
rfemur 13.3637 7.76025 22.1459
rtibia 19.7746
rfoot -19.8329 -13.4258
rtoes -25.8499
lfemur 9.08167 -13.3884 -21.2324
ltibia 26.389
lfoot -21.7608 5.47125
ltoes -16.9526
3020
root 0.251478 16.901 0.350106 -11.8317 2.5069 -1.2372
lowerback -6.99859 -0.499646 -2.13241
upperback 1.22635 -0.47303 -0.0844096
thorax 5.22093 -0.29676 1.05663
lowerneck 9.12805 -9.80138 -19.1843
upperneck 30.4659 -17.282 10.8592
head 11.1482 -9.51229 5.79288
rclavicle -2.98177e-015 5.1684e-015
rhumerus 72.9565 -16.4974 -84.7603
rradius 112.974
rwrist -49.6939
rhand 41.8839 17.3126
rfingers 7.12502
rthumb 63.9373 8.46007
lclavicle -2.98177e-015 5.1684e-015
lhumerus 68.8796 2.73893 77.2009
lradius 111.163
lwrist 70.5185
lhand 41.7542 33.1713
lfingers 7.12502
lthumb 63.8324 42.1796
rfemur 13.1877 7.76251 22.1153
rtibia 19.8102
rfoot -19.899 -13.3148
rtoes -25.7912
lfemur 9.0596 -13.3859 -21.23
ltibia 26.316
lfoot -21.7377 5.56444
ltoes -16.7016
